<svg width="21" height="21" viewBox="0 0 21 21" fill="none" xmlns="http://www.w3.org/2000/svg">
<mask id="mask0_11097_191322" style="mask-type:alpha" maskUnits="userSpaceOnUse" x="0" y="0" width="21" height="21">
<rect width="21" height="21" fill="#D9D9D9"/>
</mask>
<g mask="url(#mask0_11097_191322)">
<path d="M10.5 10.4528C10.2528 10.4528 10.0422 10.3683 9.86812 10.1993C9.69405 10.0302 9.60701 9.82564 9.60701 9.58557C9.60701 9.3455 9.69405 9.14093 9.86812 8.97188C10.0422 8.80282 10.2528 8.7183 10.5 8.7183C10.7472 8.7183 10.9578 8.80282 11.1319 8.97188C11.306 9.14093 11.393 9.3455 11.393 9.58557C11.393 9.82564 11.306 10.0302 11.1319 10.1993C10.9578 10.3683 10.7472 10.4528 10.5 10.4528ZM10.5 6.53119C10.2528 6.53119 10.0422 6.44667 9.86812 6.27761C9.69405 6.10855 9.60701 5.90399 9.60701 5.66392C9.60701 5.42385 9.69405 5.21929 9.86812 5.05023C10.0422 4.88118 10.2528 4.79665 10.5 4.79665C10.7472 4.79665 10.9578 4.88118 11.1319 5.05023C11.306 5.21929 11.393 5.42385 11.393 5.66392C11.393 5.90399 11.306 6.10855 11.1319 6.27761C10.9578 6.44667 10.7472 6.53119 10.5 6.53119ZM10.5 2.60954C10.2528 2.60954 10.0422 2.52502 9.86812 2.35596C9.69405 2.18691 9.60701 1.98234 9.60701 1.74227C9.60701 1.5022 9.69405 1.29764 9.86812 1.12858C10.0422 0.959527 10.2528 0.875 10.5 0.875C10.7472 0.875 10.9578 0.959527 11.1319 1.12858C11.306 1.29764 11.393 1.5022 11.393 1.74227C11.393 1.98234 11.306 2.18691 11.1319 2.35596C10.9578 2.52502 10.7472 2.60954 10.5 2.60954ZM13.5284 12.4137C13.2813 12.4137 13.0706 12.3291 12.8966 12.1601C12.7225 11.991 12.6355 11.7865 12.6355 11.5464C12.6355 11.3063 12.7225 11.1018 12.8966 10.9327C13.0706 10.7636 13.2813 10.6791 13.5284 10.6791C13.7756 10.6791 13.9863 10.7636 14.1603 10.9327C14.3344 11.1018 14.4214 11.3063 14.4214 11.5464C14.4214 11.7865 14.3344 11.991 14.1603 12.1601C13.9863 12.3291 13.7756 12.4137 13.5284 12.4137ZM16.3802 9.61949C16.133 9.61949 15.9224 9.53496 15.7483 9.36591C15.5743 9.19685 15.4872 8.99229 15.4872 8.75222C15.4872 8.51215 15.5743 8.30759 15.7483 8.13853C15.9224 7.96947 16.133 7.88495 16.3802 7.88495C16.6274 7.88495 16.838 7.96947 17.0121 8.13853C17.1862 8.30759 17.2732 8.51215 17.2732 8.75222C17.2732 8.99229 17.1862 9.19685 17.0121 9.36591C16.838 9.53496 16.6274 9.61949 16.3802 9.61949ZM19.232 6.87434C18.9848 6.87434 18.7742 6.78981 18.6001 6.62075C18.4261 6.4517 18.339 6.24714 18.339 6.00706C18.339 5.76699 18.4261 5.56243 18.6001 5.39337C18.7742 5.22432 18.9848 5.13979 19.232 5.13979C19.4792 5.13979 19.6898 5.22432 19.8639 5.39337C20.038 5.56243 20.125 5.76699 20.125 6.00706C20.125 6.24714 20.038 6.4517 19.8639 6.62075C19.6898 6.78981 19.4792 6.87434 19.232 6.87434ZM7.47156 12.4137C7.22437 12.4137 7.01374 12.3291 6.83967 12.1601C6.6656 11.991 6.57857 11.7865 6.57857 11.5464C6.57857 11.3063 6.6656 11.1018 6.83967 10.9327C7.01374 10.7636 7.22437 10.6791 7.47156 10.6791C7.71875 10.6791 7.92937 10.7636 8.10344 10.9327C8.27751 11.1018 8.36454 11.3063 8.36454 11.5464C8.36454 11.7865 8.27751 11.991 8.10344 12.1601C7.92937 12.3291 7.71875 12.4137 7.47156 12.4137ZM4.61977 9.61949C4.37258 9.61949 4.16196 9.53496 3.98789 9.36591C3.81382 9.19685 3.72678 8.99229 3.72678 8.75222C3.72678 8.51215 3.81382 8.30759 3.98789 8.13853C4.16196 7.96947 4.37258 7.88495 4.61977 7.88495C4.86696 7.88495 5.07759 7.96947 5.25166 8.13853C5.42572 8.30759 5.51276 8.51215 5.51276 8.75222C5.51276 8.99229 5.42572 9.19685 5.25166 9.36591C5.07759 9.53496 4.86696 9.61949 4.61977 9.61949ZM1.76799 6.87434C1.5208 6.87434 1.31017 6.78981 1.1361 6.62075C0.962034 6.4517 0.875 6.24714 0.875 6.00706C0.875 5.76699 0.962034 5.56243 1.1361 5.39337C1.31017 5.22432 1.5208 5.13979 1.76799 5.13979C2.01518 5.13979 2.2258 5.22432 2.39987 5.39337C2.57394 5.56243 2.66097 5.76699 2.66097 6.00706C2.66097 6.24714 2.57394 6.4517 2.39987 6.62075C2.2258 6.78981 2.01518 6.87434 1.76799 6.87434ZM9.74292 16.2033H6.46208C6.24756 16.2033 6.06776 16.1328 5.92266 15.9919C5.77755 15.8509 5.70499 15.6761 5.70499 15.4677C5.70499 15.2593 5.77755 15.0847 5.92266 14.9439C6.06776 14.8031 6.24756 14.7328 6.46208 14.7328H14.5379C14.7524 14.7328 14.9323 14.8032 15.0774 14.9442C15.2225 15.0852 15.295 15.2599 15.295 15.4684C15.295 15.6768 15.2225 15.8514 15.0774 15.9922C14.9323 16.1329 14.7524 16.2033 14.5379 16.2033H11.2571V19.3897C11.2571 19.598 11.1845 19.7727 11.0393 19.9136C10.8942 20.0545 10.7143 20.125 10.4997 20.125C10.2851 20.125 10.1053 20.0545 9.96033 19.9136C9.81539 19.7727 9.74292 19.5981 9.74292 19.3897V16.2033Z" fill="#C9C9CB"/>
</g>
</svg>
