<svg width="40" height="40" viewBox="0 0 40 40" fill="none" xmlns="http://www.w3.org/2000/svg">
<mask id="mask0_6967_209946" style="mask-type:alpha" maskUnits="userSpaceOnUse" x="0" y="0" width="40" height="40">
<rect width="40" height="40" transform="matrix(-1 0 0 1 40 0)" fill="#D9D9D9"/>
</mask>
<g mask="url(#mask0_6967_209946)">
<path d="M26.6667 31.6667C27.1389 31.6667 27.5347 31.5069 27.8542 31.1875C28.1736 30.8681 28.3333 30.4722 28.3333 30C28.3333 29.5278 28.1736 29.1319 27.8542 28.8125C27.5347 28.4931 27.1389 28.3333 26.6667 28.3333H16.5C14.75 28.3333 13.2292 27.7778 11.9375 26.6667C10.6458 25.5556 10 24.1667 10 22.5C10 20.8333 10.6458 19.4444 11.9375 18.3333C13.2292 17.2222 14.75 16.6667 16.5 16.6667H27L23.8333 19.8333C23.5278 20.1389 23.375 20.5278 23.375 21C23.375 21.4722 23.5278 21.8611 23.8333 22.1667C24.1389 22.4722 24.5278 22.625 25 22.625C25.4722 22.625 25.8611 22.4722 26.1667 22.1667L32.1667 16.1667C32.3333 16 32.4514 15.8194 32.5208 15.625C32.5903 15.4306 32.625 15.2222 32.625 15C32.625 14.7778 32.5903 14.5694 32.5208 14.375C32.4514 14.1806 32.3333 14 32.1667 13.8333L26.1667 7.83333C25.8611 7.52778 25.4722 7.375 25 7.375C24.5278 7.375 24.1389 7.52778 23.8333 7.83333C23.5278 8.13889 23.375 8.52778 23.375 9C23.375 9.47222 23.5278 9.86111 23.8333 10.1667L27 13.3333H16.5C13.8056 13.3333 11.4931 14.2083 9.5625 15.9583C7.63194 17.7083 6.66667 19.8889 6.66667 22.5C6.66667 25.1111 7.63194 27.2917 9.5625 29.0417C11.4931 30.7917 13.8056 31.6667 16.5 31.6667H26.6667Z" fill="#DB2121"/>
</g>
</svg>
